<?xml version="1.0" encoding="utf-8"?>
<!-- Generator: Adobe Illustrator 28.2.0, SVG Export Plug-In . SVG Version: 6.00 Build 0)  -->
<svg version="1.1" id="Layer_1" xmlns="http://www.w3.org/2000/svg" xmlns:xlink="http://www.w3.org/1999/xlink" x="0px" y="0px"
	 viewBox="0 0 490 235.4" style="enable-background:new 0 0 490 235.4;" xml:space="preserve">
<style type="text/css">
	.st0{display:none;}
	.st1{display:inline;fill:#47215D;}
	.st2{fill:#47215D;}
</style>
<g class="st0">
	<path class="st1" d="M92.3,298.1c-1.6-0.3-3.1-0.7-4.2-1.2v-1.9h0.3c1.1,0.6,2.5,1,4.1,1.4c1.6,0.4,3.2,0.5,4.7,0.5
		c2.1,0,3.7-0.2,5-0.6s2.3-0.9,2.9-1.6c0.6-0.7,0.9-1.4,0.9-2.3c0-1-0.4-1.7-1.2-2.2c-0.8-0.5-2-0.9-3.5-1l-7-0.5
		c-1.9-0.1-3.5-0.6-4.6-1.4c-1.1-0.8-1.7-2-1.7-3.5c0-1.1,0.4-2.1,1.1-2.9s1.8-1.5,3.3-1.9c1.4-0.5,3.2-0.7,5.3-0.7
		c1,0,2.1,0.1,3.2,0.2s2.1,0.4,3.1,0.6s1.7,0.5,2.2,0.8v1.7h-0.2c-1-0.5-2.2-0.9-3.7-1.2c-1.5-0.3-3-0.5-4.6-0.5
		c-1.9,0-3.4,0.2-4.6,0.5c-1.2,0.3-2.1,0.8-2.6,1.4s-0.8,1.2-0.8,2c0,1,0.4,1.8,1.2,2.3s2,0.8,3.5,0.9c2.4,0.1,4.7,0.3,6.9,0.5
		c2.2,0.2,3.9,0.7,4.9,1.5s1.5,1.9,1.5,3.4c0,1.3-0.4,2.4-1.2,3.3c-0.8,0.9-2,1.6-3.6,2.1c-1.6,0.5-3.5,0.8-5.8,0.8
		C95.5,298.6,93.9,298.4,92.3,298.1L92.3,298.1z"/>
	<path class="st1" d="M128.5,279v1.6h-8.3v17.3h-1.7v-17.3h-8.3V279H128.5z"/>
	<path class="st1" d="M131.3,295.4h2.8v2.5h-2.8V295.4z"/>
	<path class="st1" d="M170.1,290.1c-0.8,1.1-1.9,2-3.2,2.6c-1.4,0.6-2.8,0.9-4.4,0.9h-9.2v4.4h-1.7V279h10.9c1.6,0,3.1,0.3,4.4,0.9
		c1.4,0.6,2.4,1.5,3.2,2.6s1.2,2.4,1.2,3.7S170.9,289,170.1,290.1L170.1,290.1z M166.3,291.3c1-0.5,1.8-1.1,2.4-2
		c0.5-0.9,0.8-1.8,0.8-2.9s-0.3-2-0.8-2.9c-0.6-0.9-1.3-1.6-2.4-2.1c-1-0.5-2.2-0.8-3.6-0.8h-9.4V292h9.4
		C164.1,292,165.3,291.8,166.3,291.3L166.3,291.3z"/>
	<path class="st1" d="M193.6,280.7H177v6.9h12.5v1.6H177v7.1h16.6v1.6h-18.3V279h18.3V280.7L193.6,280.7z"/>
	<path class="st1" d="M215.2,279v1.6h-8.3v17.3h-1.7v-17.3h-8.3V279H215.2z"/>
	<path class="st1" d="M237.1,280.7h-16.6v6.9H233v1.6h-12.5v7.1h16.6v1.6h-18.3V279h18.3V280.7L237.1,280.7z"/>
	<path class="st1" d="M275.5,289.7c0.6,0.8,1,1.8,1,3c0,1.1-0.3,2-0.9,2.8s-1.4,1.4-2.4,1.8c-1,0.4-2.1,0.6-3.3,0.6h-14.8v-18.9
		h14.3c1.1,0,2.2,0.2,3.1,0.6c0.9,0.4,1.6,1,2.2,1.7c0.5,0.7,0.8,1.6,0.8,2.6c0,0.8-0.2,1.5-0.7,2.2s-1.1,1.2-1.9,1.7
		C273.9,288.2,274.8,288.9,275.5,289.7L275.5,289.7z M256.8,280.6v6.6h12.5c1.1,0,2-0.2,2.7-0.5c0.7-0.4,1.1-0.8,1.4-1.3
		c0.2-0.5,0.4-1,0.4-1.5c0-0.5-0.1-0.9-0.4-1.4c-0.3-0.5-0.7-0.9-1.4-1.3c-0.6-0.4-1.5-0.5-2.5-0.5L256.8,280.6L256.8,280.6z
		 M274.2,290.9c-0.3-0.6-0.9-1.1-1.6-1.5c-0.7-0.4-1.6-0.6-2.6-0.6h-1.1h0.9h-0.5c-0.1,0-0.2,0-0.4,0h-12.1v7.5h13.3
		c1,0,1.8-0.2,2.5-0.5s1.2-0.8,1.6-1.3s0.5-1.2,0.5-1.9C274.7,292.1,274.5,291.5,274.2,290.9L274.2,290.9z"/>
	<path class="st1" d="M298.9,280.7h-16.6v6.9h12.5v1.6h-12.5v7.1h16.6v1.6h-18.3V279h18.3V280.7L298.9,280.7z"/>
	<path class="st1" d="M323.8,297.9l-0.8-5.1h-17.8l-0.8,5.1h-1.7l2.8-18.9h17.1l2.8,18.9H323.8z M305.4,291.3h17.4l-1.6-10.6H307
		L305.4,291.3L305.4,291.3z"/>
	<path class="st1" d="M343.6,298.2c-1.2,0.3-2.5,0.4-3.8,0.4c-2.1,0-4-0.4-5.7-1.3s-3-2-4-3.6s-1.5-3.3-1.5-5.3s0.5-3.7,1.4-5.3
		c1-1.5,2.3-2.7,4-3.6c1.7-0.9,3.6-1.3,5.7-1.3c1.4,0,2.6,0.1,3.8,0.5c1.2,0.3,2.2,0.8,3,1.4v1.6h-0.5c-0.7-0.5-1.7-0.9-2.9-1.3
		c-1.2-0.3-2.4-0.5-3.6-0.5c-1.9,0-3.6,0.4-5,1.2s-2.5,1.8-3.2,3.1s-1.1,2.7-1.1,4.3s0.4,2.9,1.1,4.2s1.8,2.3,3.2,3.1s3,1.2,4.9,1.2
		c1.2,0,2.4-0.2,3.6-0.5s2.2-0.8,2.9-1.3h0.5v1.6C345.8,297.4,344.8,297.9,343.6,298.2L343.6,298.2z"/>
	<path class="st1" d="M369.1,279h1.7v18.9h-1.7v-8.4h-16.5v8.4h-1.7V279h1.7v8.9h16.5V279z"/>
	<path class="st1" d="M245.7,312.3h-15.9v7h14.5v1.6h-14.5v8.7h-1.7v-18.9h17.5L245.7,312.3L245.7,312.3z"/>
	<path class="st1" d="M251,328h14v1.6h-15.7v-18.9h1.7V328z"/>
	<path class="st1" d="M273.5,329c-1.7-0.9-3-2.1-4-3.6s-1.5-3.3-1.5-5.3s0.5-3.7,1.5-5.3c1-1.5,2.3-2.7,4-3.6s3.5-1.3,5.5-1.3
		s3.8,0.4,5.5,1.3c1.7,0.8,3,2,4,3.6s1.5,3.3,1.5,5.3s-0.5,3.7-1.5,5.3s-2.3,2.8-4,3.6s-3.5,1.3-5.5,1.3S275.2,329.8,273.5,329z
		 M283.6,327.6c1.4-0.7,2.5-1.7,3.3-3c0.8-1.3,1.2-2.8,1.2-4.5s-0.4-3.3-1.2-4.5c-0.8-1.3-1.9-2.2-3.3-2.9c-1.4-0.7-2.9-1-4.6-1
		s-3.3,0.3-4.7,1s-2.5,1.6-3.3,2.9c-0.8,1.3-1.2,2.8-1.2,4.5s0.4,3.3,1.2,4.5c0.8,1.3,1.9,2.3,3.3,3s3,1,4.6,1
		S282.2,328.3,283.6,327.6L283.6,327.6z"/>
	<path class="st1" d="M312.5,329.6l-1.9-5.9h-15.1v5.9h-1.7v-18.9h10.9c1.8,0,3.4,0.3,4.7,0.8c1.3,0.5,2.4,1.3,3.1,2.3
		c0.7,1,1.1,2.1,1.1,3.4c0,0.9-0.3,1.9-0.9,2.7s-1.5,1.6-2.6,2.2h0l1.8,0l2.5,7.5H312.5L312.5,329.6z M303.1,322.1h1.8
		c1.4-0.1,2.6-0.3,3.6-0.7c1-0.4,1.8-1,2.4-1.7s0.8-1.5,0.8-2.4c0-1.6-0.6-2.8-1.8-3.7c-1.2-0.8-2.9-1.2-5.2-1.2h-9.3v9.8
		L303.1,322.1L303.1,322.1z"/>
	<path class="st1" d="M318.6,310.7h1.7v18.9h-1.7V310.7z"/>
	<path class="st1" d="M344.1,325c-0.9,1.4-2.2,2.6-3.9,3.4c-1.6,0.8-3.4,1.2-5.4,1.2h-8.9h-0.9v-18.9h1.7l0,0h8c2,0,3.8,0.4,5.4,1.2
		s2.9,2,3.9,3.4c0.9,1.5,1.4,3.1,1.4,4.9S345,323.5,344.1,325L344.1,325z M339.5,326.9c1.3-0.7,2.4-1.6,3.1-2.8s1.1-2.5,1.1-3.9
		s-0.4-2.8-1.1-4c-0.7-1.2-1.8-2.1-3.1-2.8s-2.9-1-4.7-1h-8V328c0.2,0,0.6,0,1.2,0c0.4,0,1.2,0,2.5,0c1.7,0,3.1,0,4.4,0
		C336.6,328,338.2,327.6,339.5,326.9L339.5,326.9z"/>
	<path class="st1" d="M369.8,329.6l-0.8-5.1h-17.8l-0.8,5.1h-1.7l2.8-18.9h17.1l2.8,18.9H369.8z M351.4,322.9h17.4l-1.6-10.6H353
		L351.4,322.9L351.4,322.9z"/>
</g>
<g>
	<path class="st2" d="M375.5,152.6h1.7v18.9h-1.7V152.6z"/>
	<path class="st2" d="M400.3,154.2h-16.6v6.9h12.5v1.6h-12.5v7.1h16.6v1.6H382v-18.9h18.3V154.2z"/>
	<path class="st2" d="M423.1,154.2h-16.6v6.9H419v1.6h-12.5v7.1h16.6v1.6h-18.3v-18.9h18.3V154.2z"/>
	<path class="st2" d="M445.9,154.2h-16.6v6.9h12.5v1.6h-12.5v7.1h16.6v1.6h-18.3v-18.9h18.3V154.2z"/>
	<path class="st2" d="M394,184.2h1.7l-5,18.9h-10.9l-5-18.9h1.7l4.6,17.3h8.4L394,184.2L394,184.2z"/>
	<path class="st2" d="M399.7,184.2h1.7v18.9h-1.7V184.2z"/>
	<path class="st2" d="M409.7,203.2c-1.6-0.3-3-0.7-4.2-1.2v-1.9h0.3c1.1,0.6,2.5,1,4,1.4c1.6,0.4,3.1,0.5,4.7,0.5c2,0,3.7-0.2,5-0.6
		s2.3-0.9,2.9-1.6s0.9-1.4,0.9-2.3c0-0.9-0.4-1.7-1.2-2.2c-0.8-0.5-2-0.9-3.5-1l-7-0.5c-2-0.1-3.5-0.6-4.6-1.4
		c-1.1-0.8-1.7-2-1.7-3.5c0-1.1,0.4-2.1,1.1-2.9c0.7-0.8,1.8-1.5,3.3-1.9s3.2-0.7,5.3-0.7c1,0,2.1,0.1,3.2,0.2s2.1,0.4,3.1,0.6
		s1.6,0.5,2.2,0.8v1.7h-0.2c-1-0.5-2.2-0.9-3.6-1.2c-1.5-0.3-3-0.4-4.6-0.4c-1.9,0-3.4,0.2-4.6,0.5c-1.2,0.3-2,0.8-2.6,1.4
		s-0.8,1.2-0.8,2c0,1,0.4,1.8,1.2,2.3s2,0.8,3.5,0.9c2.4,0.1,4.7,0.3,6.9,0.5c2.2,0.2,3.9,0.7,4.9,1.5s1.5,1.9,1.5,3.4
		c0,1.3-0.4,2.4-1.2,3.3c-0.8,0.9-2,1.6-3.6,2.1s-3.5,0.8-5.8,0.8C412.9,203.7,411.3,203.6,409.7,203.2L409.7,203.2z"/>
	<path class="st2" d="M449.2,203.1l-0.8-5.1h-17.8l-0.8,5.1h-1.7l2.8-18.9H448l2.8,18.9H449.2z M430.8,196.4h17.4l-1.6-10.6h-14.2
		L430.8,196.4L430.8,196.4z"/>
	<path class="st2" d="M473.5,195.2c-0.8,1.1-1.9,2-3.2,2.6c-1.4,0.6-2.8,0.9-4.5,0.9h-9.2v4.4H455v-18.9h10.9c1.6,0,3.1,0.3,4.5,0.9
		c1.4,0.6,2.4,1.5,3.2,2.6s1.2,2.4,1.2,3.7S474.3,194.1,473.5,195.2L473.5,195.2z M469.7,196.4c1-0.5,1.8-1.1,2.4-2
		c0.5-0.9,0.8-1.8,0.8-2.9s-0.3-2-0.8-2.9c-0.5-0.9-1.3-1.6-2.4-2.1s-2.2-0.8-3.6-0.8h-9.4v11.4h9.4
		C467.5,197.2,468.7,196.9,469.7,196.4L469.7,196.4z"/>
	<path class="st2" d="M390.9,233.1v1.6h-15.8v-1.6l0.7-0.3c2.6-1.1,4.8-2.1,6.6-3s3.2-2,4.5-3.2c1.3-1.3,1.9-2.7,1.9-4.3
		c0-1-0.3-2-1-2.8s-1.5-1.5-2.7-2s-2.6-0.7-4.2-0.7s-3.5,0.3-5.4,0.8V216c2-0.6,3.9-0.8,5.7-0.8c2,0,3.6,0.3,5,1s2.5,1.5,3.2,2.6
		c0.7,1.1,1.1,2.2,1.1,3.5c0,1.9-0.7,3.5-2,5c-1.4,1.5-2.8,2.6-4.5,3.6c-1.6,0.9-3.3,1.7-5.1,2.4L390.9,233.1L390.9,233.1z"/>
	<path class="st2" d="M399.6,234.1c-1.5-0.9-2.7-2.1-3.6-3.6c-0.9-1.6-1.3-3.3-1.3-5.3s0.4-3.7,1.3-5.3c0.9-1.5,2.1-2.7,3.6-3.6
		s3.2-1.3,5-1.3s3.5,0.4,5,1.3s2.7,2,3.6,3.6c0.9,1.5,1.3,3.3,1.3,5.3s-0.4,3.7-1.3,5.3c-0.9,1.6-2.1,2.8-3.6,3.6s-3.2,1.3-5,1.3
		S401.1,235,399.6,234.1L399.6,234.1z M408.8,232.8c1.2-0.7,2.2-1.7,3-3c0.7-1.3,1.1-2.8,1.1-4.6s-0.4-3.3-1.1-4.6
		c-0.7-1.3-1.7-2.2-3-2.9s-2.6-1-4.2-1s-3,0.3-4.2,1s-2.2,1.6-3,2.9c-0.7,1.3-1.1,2.8-1.1,4.6s0.4,3.3,1.1,4.6c0.7,1.3,1.7,2.3,3,3
		c1.3,0.7,2.7,1,4.2,1S407.5,233.5,408.8,232.8L408.8,232.8z"/>
	<path class="st2" d="M434.1,233.1v1.6h-15.8v-1.6l0.7-0.3c2.6-1.1,4.8-2.1,6.6-3s3.2-2,4.5-3.2c1.3-1.3,1.9-2.7,1.9-4.3
		c0-1-0.3-2-1-2.8s-1.5-1.5-2.7-2s-2.6-0.7-4.2-0.7s-3.5,0.3-5.4,0.8V216c2-0.6,3.9-0.8,5.7-0.8c2,0,3.6,0.3,5,1s2.5,1.5,3.2,2.6
		c0.7,1.1,1.1,2.2,1.1,3.5c0,1.9-0.7,3.5-2,5c-1.4,1.5-2.8,2.6-4.5,3.6c-1.6,0.9-3.3,1.7-5.1,2.4L434.1,233.1L434.1,233.1z"/>
	<path class="st2" d="M454.4,228.3v1.6H452v4.8h-1.7v-4.8h-13v-1.6l12.2-12.5h2.4v12.5H454.4L454.4,228.3z M439.5,228.3h10.8v-10.9
		L439.5,228.3z"/>
</g>
<path class="st2" d="M32.4,65.2h-8.5c-2.8,0-5.5,0-8.1,0c-2.6,0-5.1,0-7.4,0V41.6h21.4c1.7,0,3.2-0.3,4.6-0.9
	c1.3-0.6,2.4-1.4,3.2-2.6c0.8-1.1,1.2-2.5,1.2-4.2c0-1.5-0.4-2.7-1.2-3.8c-0.8-1.1-1.8-1.9-3.2-2.4C33,27.3,31.5,27,29.8,27H8.4V2.1
	H19c2.2,0,4.5,0,6.7,0h6.7c6.5,0,12.5,1.4,17.9,4.1s9.8,6.5,13,11.4s4.8,10.2,4.8,16.2s-1.6,11.3-4.8,16.1c-3.2,4.8-7.5,8.5-13,11.2
	C44.9,63.9,38.9,65.2,32.4,65.2 M0,2.1h28.4v63.1H0V2.1z"/>
<rect x="76.9" y="2.1" class="st2" width="22.7" height="63.1"/>
<path class="st2" d="M168.1,65.2h-14.3l14.5-63.1h15.2L168.1,65.2L168.1,65.2z M161,65.2h-24.2v-12H161V65.2z M126.9,65.2L111.5,2.1
	h15.2l14.5,63.1H126.9L126.9,65.2z"/>
<path class="st2" d="M201.9,59.9h56.4v5.4h-56.4V59.9z M201.9,2.1h56.4v5.4h-56.4C201.9,7.5,201.9,2.1,201.9,2.1z M201.7,30.5h42.7
	V36h-42.7V30.5z M197.2,2.1h5.6v63.1h-5.6C197.2,65.2,197.2,2.1,197.2,2.1z"/>
<path class="st2" d="M316.2,65.3l-8.9-22.7h24.3l9.9,22.7H316.2L316.2,65.3z M304.2,42.5l16.1,0v3.2h-16.1
	C304.2,45.8,304.2,42.5,304.2,42.5z M309,45.6c-0.1,0-0.3,0-0.4,0c-0.1,0-0.3,0-0.5,0c-0.2,0-0.3,0.1-0.5,0.1c-0.2,0-0.3,0-0.5,0
	h-20.7V30.6h19c1.9,0,3.6-0.2,5-0.8c1.4-0.5,2.5-1.2,3.2-2.2c0.8-1,1.1-2.1,1.1-3.5c0-1.9-0.8-3.3-2.5-4.4c-1.7-1.1-4-1.6-6.9-1.6
	h-19l-0.6-16h10.6c2.3,0,4.6,0,6.7,0h6.2c6,0,11.2,0.9,15.7,2.8c4.5,1.8,7.9,4.4,10.3,7.7s3.6,7.1,3.6,11.4c0,3.9-1.1,7.4-3.4,10.7
	c-2.3,3.3-5.7,5.9-10.2,7.9S315.3,45.6,309,45.6 M273,2.1h25.4v63.1H273V2.1z"/>
<path class="st2" d="M382,67.4c-5.2,0-10.5-0.5-16-1.6s-10.2-2.5-14.1-4.2v-6.4h1c3.7,1.9,8.2,3.5,13.5,4.7s10.5,1.8,15.7,1.8
	c6.8,0,12.5-0.6,16.8-1.9s7.6-3,9.6-5.2c2-2.2,3-4.7,3-7.5c0-2.1-0.6-3.9-1.8-5.4s-3-2.7-5.3-3.6c-2.4-0.9-5.2-1.4-8.7-1.7
	c-2-0.1-4.2-0.3-6.6-0.5s-4.8-0.3-7.2-0.5c-1.7-0.1-3.4-0.2-5-0.3s-3.1-0.2-4.5-0.3c-4.2-0.3-7.9-1.1-11.1-2.3s-5.6-3.1-7.4-5.4
	s-2.6-5.2-2.6-8.6c0-3.8,1.2-7,3.7-9.8c2.5-2.8,6.1-4.9,11-6.4c4.9-1.5,10.8-2.2,17.8-2.2c3.4,0,7,0.3,10.7,0.8
	c3.7,0.5,7.1,1.2,10.2,2c3.1,0.8,5.5,1.7,7.3,2.5V11h-0.7c-3.2-1.6-7.3-2.9-12.2-3.9c-4.9-1-10-1.5-15.2-1.5
	c-6.3,0-11.5,0.6-15.4,1.7s-6.8,2.6-8.6,4.5s-2.6,4.1-2.6,6.6c0,2.2,0.6,4.1,1.9,5.6s3,2.7,5.4,3.5c2.4,0.8,5.2,1.3,8.5,1.5
	c1.1,0.1,2.2,0.1,3.3,0.2s2.3,0.1,3.5,0.2c2.7,0.2,5.5,0.4,8.2,0.5s5.4,0.4,8,0.6c5,0.4,9.1,1.3,12.3,2.6s5.5,3.2,7,5.4
	s2.2,5,2.2,8.2c0,4.2-1.3,7.9-4,11c-2.6,3.1-6.6,5.4-11.9,7.1C396.2,66.6,389.8,67.4,382,67.4"/>
<path class="st2" d="M437.6,55.7H490v9.5h-52.4C437.6,65.2,437.6,55.7,437.6,55.7z M437.6,2.1H490v9.5h-52.4V2.1L437.6,2.1z
	 M437.4,28.7h38.7v9h-38.7C437.4,37.7,437.4,28.7,437.4,28.7z M428.9,2.1h11.5v63.1h-11.5V2.1L428.9,2.1z"/>
<path class="st2" d="M33.2,170.8h-8.9c-3.3,0-6.4,0-9.5,0c-3.1,0-5.8,0-8.3,0V156c2,0,4.1,0,6.5,0c2.3,0,4.8,0,7.5,0
	c1.8,0,3.6,0,5.5,0c1.9,0,3.9,0,5.9,0c3.8,0,7.1-0.7,10.1-2.1c2.9-1.4,5.2-3.4,6.8-5.9c1.6-2.5,2.4-5.4,2.4-8.5s-0.8-6-2.4-8.5
	c-1.6-2.5-3.9-4.4-6.8-5.9c-2.9-1.4-6.2-2.1-10-2.1H6.5v-15.3h11.8c2.6,0,5.1,0,7.6,0h7.3c6.6,0,12.6,1.4,18,4.1s9.7,6.5,12.9,11.4
	c3.2,4.8,4.7,10.2,4.7,16.2s-1.6,11.4-4.7,16.2c-3.2,4.8-7.5,8.5-12.9,11.2S39.7,170.8,33.2,170.8 M0.7,170.8v-63.1l17,0v63.1
	L0.7,170.8z"/>
<path class="st2" d="M143.6,107.7l9.4,63.1h-5.6l-9.4-63.1H143.6z M89.2,107.7h51.9v5.4H89.2V107.7z M84.3,148.5h61.3v5.4H84.3
	C84.3,153.9,84.3,148.5,84.3,148.5z M86.5,107.7h5.6l-9.4,63.1h-5.6C77.1,170.8,86.5,107.7,86.5,107.7z"/>
<path class="st2" d="M184.9,107.7h16.1v63.1h-16.1V107.7z M162.4,107.7h61v12.6h-61V107.7z"/>
<path class="st2" d="M294.8,107.7l9.4,63.1h-28.4l-7.2-63.1H294.8L294.8,107.7z M257.9,107.7h16v21.1h-16V107.7z M249.7,141.4H287
	v19.7h-37.3V141.4z M237.7,107.7H264l-7.2,63.1h-28.4L237.7,107.7L237.7,107.7z"/>
</svg>
