<?xml version="1.0" encoding="UTF-8"?>
<svg id="Layer_1" data-name="Layer 1" xmlns="http://www.w3.org/2000/svg" viewBox="0 0 696.16 334.45">
  <defs>
    <style>
      .cls-1 {
        fill: #f3f551;
      }

      .cls-1, .cls-2, .cls-3, .cls-4, .cls-5, .cls-6, .cls-7, .cls-8, .cls-9, .cls-10 {
        stroke-width: 0px;
      }

      .cls-2 {
        fill: #60cff7;
      }

      .cls-3 {
        fill: #48195c;
      }

      .cls-4 {
        fill: #06212a;
      }

      .cls-5 {
        fill: #ac6888;
      }

      .cls-6 {
        fill: #b0e7fb;
      }

      .cls-7 {
        fill: #9cf1c7;
      }

      .cls-8 {
        fill: #fddcfb;
      }

      .cls-9 {
        fill: #750438;
      }

      .cls-10 {
        fill: #fffe0d;
      }
    </style>
  </defs>
  <g>
    <path class="cls-4" d="m509.55,243.64v-26.85h2.39v26.85h-2.39Z"/>
    <path class="cls-4" d="m518.71,243.64v-26.85h2.39v26.85h-2.39Zm1.92-14.79h18.19v2.34h-18.19v-2.34Zm.07-12.06h24.02v2.28h-24.02v-2.28Zm0,24.56h24.02v2.29h-24.02v-2.29Z"/>
    <path class="cls-4" d="m551.12,243.64v-26.85h2.39v26.85h-2.39Zm1.92-14.79h18.19v2.34h-18.19v-2.34Zm.07-12.06h24.02v2.28h-24.02v-2.28Zm0,24.56h24.02v2.29h-24.02v-2.29Z"/>
    <path class="cls-4" d="m583.52,243.64v-26.85h2.39v26.85h-2.39Zm1.92-14.79h18.19v2.34h-18.19v-2.34Zm.07-12.06h24.02v2.28h-24.02v-2.28Zm0,24.56h24.02v2.29h-24.02v-2.29Z"/>
    <path class="cls-4" d="m515.57,288.56l-7.11-26.85h2.39l7.11,26.85h-2.39Zm14.26,0h-12.83v-2.29h12.83v2.29Zm1.26,0h-2.39l7.11-26.85h2.39l-7.11,26.85Z"/>
    <path class="cls-4" d="m543.86,288.56v-26.85h2.39v26.85h-2.39Z"/>
    <path class="cls-4" d="m564.84,289.48c-2.22,0-4.49-.23-6.82-.69-2.33-.46-4.33-1.05-6.01-1.77v-2.74h.4c1.58.82,3.5,1.48,5.76,1.98,2.25.51,4.48.76,6.67.76,2.91,0,5.3-.27,7.17-.81,1.86-.54,3.22-1.28,4.08-2.21.85-.93,1.28-2,1.28-3.21,0-.9-.25-1.67-.76-2.31-.51-.64-1.26-1.14-2.26-1.52s-2.24-.61-3.71-.7c-.87-.06-1.8-.12-2.8-.19s-2.02-.13-3.07-.19c-.73-.05-1.44-.1-2.12-.15s-1.32-.09-1.92-.13c-1.8-.12-3.38-.45-4.72-1-1.35-.54-2.39-1.31-3.14-2.3-.75-.99-1.12-2.21-1.12-3.66,0-1.6.53-2.98,1.58-4.16s2.61-2.08,4.68-2.71c2.07-.63,4.58-.95,7.56-.95,1.46,0,2.98.11,4.56.34,1.58.23,3.03.52,4.34.87,1.32.35,2.34.71,3.09,1.08v2.39h-.31c-1.36-.67-3.09-1.22-5.19-1.64s-4.26-.64-6.49-.64c-2.69,0-4.88.24-6.57.71s-2.91,1.12-3.66,1.93c-.75.81-1.12,1.74-1.12,2.79,0,.94.26,1.73.79,2.38.52.65,1.29,1.15,2.28,1.51s2.21.57,3.64.64c.45.02.92.05,1.41.08s.99.06,1.5.08c1.16.07,2.32.15,3.49.23,1.17.08,2.31.17,3.42.26,2.13.17,3.88.55,5.23,1.12,1.35.58,2.34,1.35,2.97,2.31.63.96.94,2.12.94,3.47,0,1.8-.56,3.36-1.68,4.66-1.12,1.3-2.81,2.31-5.05,3.03s-5.01,1.07-8.29,1.07Z"/>
    <path class="cls-4" d="m588.26,261.71h2.39l-4,26.85h-2.39l4-26.85Zm-.93,17.38h26.1v2.29h-26.1v-2.29Zm2.08-17.38h22.1v2.28h-22.1v-2.28Zm23.14,0l4,26.85h-2.39l-4-26.85h2.39Z"/>
    <path class="cls-4" d="m622.4,288.56v-26.85h2.39v26.85h-2.39Zm15.43-6.2h-13.73v-2.23h14.06c2,0,3.73-.34,5.2-1.03,1.47-.69,2.59-1.64,3.36-2.85.77-1.21,1.16-2.59,1.16-4.12s-.39-2.88-1.17-4.13c-.78-1.25-1.9-2.25-3.37-2.99-1.47-.74-3.2-1.11-5.18-1.11h-14.06l-.27-2.19h6.34c1.49-.01,2.9-.02,4.23-.02h3.43c2.29,0,4.4.45,6.32,1.35,1.92.9,3.45,2.14,4.57,3.73,1.12,1.58,1.68,3.36,1.68,5.32s-.56,3.71-1.68,5.27c-1.12,1.57-2.64,2.79-4.57,3.67-1.93.88-4.03,1.33-6.32,1.33Z"/>
    <path class="cls-4" d="m528.42,315.83c0-1.96-.78-3.66-2.34-5.08s-3.77-2.32-6.63-2.68-6.15,0-9.87,1.07v-2.28c4.4-1.21,8.21-1.51,11.43-.92,3.22.59,5.67,1.79,7.35,3.59,1.68,1.8,2.51,3.84,2.51,6.12,0,2.66-.96,5.03-2.87,7.12s-4.04,3.77-6.37,5.04c-2.33,1.27-4.74,2.4-7.21,3.39h-5.41l.97-.4c3.75-1.55,6.86-2.95,9.32-4.2s4.6-2.79,6.41-4.62c1.81-1.82,2.71-3.87,2.71-6.15Zm-19.41,15.37h22.39v2.29h-22.39v-2.29Z"/>
    <path class="cls-4" d="m550.9,334.45c-2.61,0-4.99-.61-7.16-1.83-2.16-1.22-3.88-2.93-5.15-5.13-1.27-2.2-1.9-4.7-1.9-7.5s.63-5.29,1.89-7.47c1.26-2.17,2.98-3.86,5.14-5.06s4.56-1.8,7.17-1.8,4.97.6,7.13,1.8c2.16,1.2,3.87,2.89,5.13,5.06,1.26,2.17,1.89,4.66,1.89,7.47s-.63,5.3-1.89,7.5c-1.26,2.2-2.97,3.91-5.14,5.13-2.16,1.22-4.54,1.83-7.12,1.83Zm0-2.29c2.17,0,4.14-.49,5.91-1.47,1.77-.98,3.18-2.39,4.22-4.23s1.56-4,1.56-6.47-.52-4.65-1.55-6.47c-1.04-1.82-2.44-3.2-4.22-4.15-1.78-.95-3.75-1.42-5.92-1.42s-4.22.47-6,1.42-3.18,2.32-4.21,4.14c-1.03,1.82-1.54,3.98-1.54,6.49s.51,4.65,1.54,6.49,2.44,3.25,4.22,4.22c1.78.98,3.78,1.46,5.99,1.46Z"/>
    <path class="cls-4" d="m587.93,315.83c0-1.96-.78-3.66-2.34-5.08s-3.77-2.32-6.63-2.68-6.15,0-9.87,1.07v-2.28c4.4-1.21,8.21-1.51,11.43-.92,3.22.59,5.67,1.79,7.35,3.59,1.68,1.8,2.51,3.84,2.51,6.12,0,2.66-.96,5.03-2.87,7.12s-4.04,3.77-6.37,5.04c-2.33,1.27-4.74,2.4-7.21,3.39h-5.41l.97-.4c3.75-1.55,6.86-2.95,9.32-4.2s4.6-2.79,6.41-4.62c1.81-1.82,2.71-3.87,2.71-6.15Zm-19.41,15.37h22.39v2.29h-22.39v-2.29Z"/>
    <path class="cls-4" d="m595.48,324.42l17.36-17.78h3.31l-17.53,17.78h-3.14Zm0,0h24.22v2.28h-24.22v-2.28Zm18.42,9.07v-26.85h2.39v26.85h-2.39Z"/>
  </g>
  <g>
    <path class="cls-3" d="m0,92.68V3.05h40.33v89.63H0Zm46.07,0h-12.08c-3.99,0-7.84,0-11.56-.03-3.72-.02-7.21,0-10.46.03v-33.56h30.38c2.4,0,4.55-.41,6.47-1.22,1.91-.81,3.42-2.02,4.51-3.63,1.1-1.61,1.65-3.59,1.65-5.95,0-2.07-.56-3.86-1.68-5.37-1.12-1.5-2.63-2.64-4.55-3.42-1.91-.77-4.05-1.16-6.41-1.16H11.96V3.05h15.01c3.17-.04,6.35-.06,9.55-.06h9.55c9.23,0,17.71,1.95,25.44,5.86,7.73,3.91,13.86,9.29,18.4,16.14,4.54,6.85,6.8,14.53,6.8,23.03s-2.26,16.1-6.77,22.91c-4.52,6.81-10.65,12.14-18.4,15.99-7.75,3.84-16.24,5.77-25.47,5.77Z"/>
    <path class="cls-4" d="m109.27,92.68V3.05h32.22v89.63h-32.22Z"/>
    <path class="cls-10" d="m180.35,92.68L158.45,3.05h21.54l20.62,89.63h-20.26Zm48.38,0h-34.41v-17.08h34.41v17.08Zm10.07,0h-20.26L239.17,3.05h21.54l-21.9,89.63Z"/>
    <path class="cls-6" d="m280.17,92.68V3.05h7.99v89.63h-7.99Zm6.41-49.36h60.71v7.81h-60.71v-7.81Zm.24-40.27h80.17v7.63h-80.17V3.05Zm0,82h80.17v7.63h-80.17v-7.63Z"/>
    <path class="cls-9" d="m387.79,92.68V3.05h36.12v89.63h-36.12Zm51.19-27.88c-.21,0-.41.01-.61.03-.21.02-.43.03-.67.03-.24.04-.48.08-.7.12-.22.04-.48.06-.76.06h-29.41v-21.6h27.03c2.72,0,5.08-.36,7.08-1.07,1.99-.71,3.53-1.75,4.61-3.11,1.08-1.36,1.62-3.04,1.62-5.03,0-2.64-1.19-4.72-3.57-6.22-2.38-1.5-5.62-2.26-9.73-2.26h-27.03l-.92-22.7h15.01c3.29-.04,6.49-.06,9.58-.06h8.79c8.54,0,15.97,1.3,22.3,3.91,6.32,2.6,11.19,6.23,14.58,10.89,3.4,4.66,5.1,10.08,5.1,16.26,0,5.49-1.63,10.57-4.88,15.22-3.26,4.66-8.06,8.4-14.43,11.23-6.37,2.83-14.03,4.26-22.97,4.3Zm-6.83-4.39l22.82.06v4.58h-22.82v-4.64Zm17.02,32.34l-12.69-32.28h34.54l14.09,32.28h-35.94Z"/>
    <path class="cls-8" d="m542.76,95.73c-7.4,0-14.99-.77-22.76-2.32-7.77-1.55-14.46-3.52-20.07-5.92v-9.15h1.34c5.29,2.73,11.69,4.93,19.22,6.62,7.53,1.69,14.95,2.53,22.27,2.53,9.72,0,17.7-.9,23.92-2.71,6.22-1.81,10.76-4.27,13.61-7.38,2.85-3.11,4.27-6.68,4.27-10.71,0-3.01-.84-5.58-2.53-7.72-1.69-2.13-4.2-3.82-7.54-5.06-3.34-1.24-7.46-2.02-12.39-2.35-2.89-.2-6-.42-9.33-.64-3.34-.22-6.75-.44-10.25-.64-2.44-.16-4.8-.33-7.08-.49-2.28-.16-4.41-.3-6.41-.43-6.02-.41-11.28-1.51-15.77-3.33-4.49-1.81-7.99-4.37-10.49-7.69s-3.75-7.39-3.75-12.23c0-5.33,1.76-9.96,5.28-13.88,3.52-3.92,8.72-6.95,15.62-9.06s15.3-3.17,25.23-3.17c4.88,0,9.96.38,15.22,1.13s10.1,1.72,14.49,2.9c4.39,1.18,7.83,2.38,10.31,3.6v7.99h-1.04c-4.56-2.24-10.33-4.07-17.33-5.49-7-1.42-14.22-2.14-21.66-2.14-8.99,0-16.3.79-21.94,2.38-5.63,1.59-9.7,3.73-12.2,6.44-2.5,2.71-3.75,5.81-3.75,9.3,0,3.13.87,5.79,2.62,7.96,1.75,2.18,4.29,3.85,7.63,5.03s7.38,1.89,12.14,2.13c1.5.08,3.07.17,4.7.28s3.29.19,5,.27c3.86.24,7.75.5,11.65.76,3.9.26,7.71.56,11.41.88,7.12.57,12.93,1.82,17.45,3.75,4.52,1.93,7.82,4.51,9.91,7.72,2.1,3.21,3.14,7.08,3.14,11.59,0,6.02-1.87,11.21-5.61,15.56s-9.37,7.72-16.87,10.1c-7.51,2.38-16.73,3.57-27.67,3.57Z"/>
    <path class="cls-2" d="m609.33,92.68V3.05h16.35v89.63h-16.35Zm12.08-51.86h55.04v12.81h-55.04v-12.81Zm.24-37.77h74.5v13.48h-74.5V3.05Zm0,76.15h74.5v13.48h-74.5v-13.48Z"/>
    <path class="cls-1" d="m1.04,242.63v-89.63l24.22-.06v89.63l-24.22.06Zm46.07,0h-12.63c-4.64,0-9.13,0-13.48-.03s-8.28,0-11.78.03v-20.93c2.81.04,5.87.05,9.18.03s6.86,0,10.65.03c2.48,0,5.08,0,7.81-.03,2.72-.02,5.53-.03,8.42-.03,5.37,0,10.13-1.02,14.28-3.05,4.15-2.03,7.35-4.84,9.61-8.42,2.26-3.58,3.39-7.61,3.39-12.08s-1.14-8.48-3.42-12.02c-2.28-3.54-5.48-6.32-9.61-8.33-4.13-2.01-8.88-3.02-14.25-3.02H9.21v-21.78h16.72c3.66-.04,7.28-.06,10.86-.06h10.31c9.35,0,17.9,1.95,25.62,5.86s13.83,9.29,18.3,16.14c4.47,6.85,6.71,14.53,6.71,23.03s-2.24,16.16-6.71,22.97c-4.47,6.81-10.59,12.13-18.33,15.96-7.75,3.82-16.28,5.74-25.6,5.74Z"/>
    <path class="cls-7" d="m122.88,153h7.99l-13.36,89.63h-7.99l13.36-89.63Zm-3.11,58.02h87.13v7.63h-87.13v-7.63Zm6.96-58.02h73.77v7.63h-73.77v-7.63Zm77.24,0l13.36,89.63h-7.99l-13.36-89.63h7.99Z"/>
    <path class="cls-5" d="m230.76,153h86.64v17.94h-86.64v-17.94Zm31.91,89.63v-89.63h22.82v89.63h-22.82Z"/>
    <path class="cls-3" d="m337.71,153h37.28l-10.25,89.63h-40.39l13.36-89.63Zm17.02,47.9h52.96v27.95h-52.96v-27.95Zm11.59-47.9h22.7v29.96h-22.7v-29.96Zm52.47,0l13.36,89.63h-40.39l-10.25-89.63h37.28Z"/>
  </g>
</svg>