<?xml version="1.0" encoding="UTF-8"?>
<svg id="Layer_1" data-name="Layer 1" xmlns="http://www.w3.org/2000/svg" viewBox="0 0 32 32">
  <defs>
    <style>
      .cls-1 {
        fill: #06212a;
        stroke-width: 0px;
      }
    </style>
  </defs>
  <path id="path134" class="cls-1" d="m10.74,10.73c-.99.99-2.57.99-3.52,0-.99-.99-.99-2.57,0-3.52.99-.99,2.53-.99,3.52,0,.99.95.99,2.53,0,3.52"/>
  <path id="path136" class="cls-1" d="m21.3,21.28c.99-.99,2.53-.99,3.52,0s.99,2.53,0,3.52c-.99.99-2.53.99-3.52,0-.95-.99-.95-2.57,0-3.52"/>
  <path id="path138" class="cls-1" d="m21.3,7.21c.99-.99,2.53-.99,3.52,0,.99.99.99,2.53,0,3.52-.99.99-2.53.99-3.52,0-.95-.99-.95-2.57,0-3.52"/>
  <path id="path140" class="cls-1" d="m7.22,21.28c.99-.99,2.53-.99,3.52,0,.99.99.99,2.53,0,3.52s-2.57.99-3.52,0c-.99-.99-.99-2.57,0-3.52"/>
  <path id="path142" class="cls-1" d="m19.54,18.26h-.14c-.59.05-1.08-.36-1.31-.54l-.14-.14c.77-.9.77-2.26,0-3.2.09-.09.14-.14.18-.18.23-.18.77-.59,1.26-.5h.18c.68,0,1.26-.54,1.26-1.26,0-.68-.54-1.26-1.26-1.26-.68,0-1.26.54-1.26,1.26v.14h0c.05.59-.36,1.13-.54,1.31,0,0-.05.05-.14.14-.95-.77-2.3-.77-3.2,0-.09-.09-.18-.14-.18-.18-.18-.18-.59-.77-.5-1.26h0v-.18c0-.68-.54-1.26-1.26-1.26-.68,0-1.26.54-1.26,1.26,0,.68.54,1.26,1.26,1.26h.14c.59-.05,1.08.36,1.31.54,0,0,.05.09.18.18-.77.9-.77,2.26,0,3.16-.09.09-.18.18-.18.18-.23.18-.77.59-1.26.54h-.18c-.68,0-1.26.54-1.26,1.26,0,.68.54,1.22,1.26,1.22.68,0,1.26-.54,1.26-1.22v-.14h0c-.05-.59.36-1.08.54-1.31,0,0,.09-.05.18-.18.9.77,2.3.77,3.2,0l.14.14c.18.23.59.77.54,1.26h0v.18c0,.68.54,1.22,1.26,1.22.68,0,1.26-.54,1.26-1.22-.14-.68-.68-1.22-1.35-1.22"/>
  <path id="path144" class="cls-1" d="m6.77,14.65c-.32.32-.45.68-.54,1.08h-.05c-.27,0-1.08-.09-1.31-.59-.14-.32-.32-.63-.59-.9-.99-.99-2.53-.99-3.52,0-.99.99-.99,2.53,0,3.52.99.99,2.57.99,3.52,0,.27-.27.45-.54.54-.86.32-.59,1.08-.59,1.35-.59h.05c.05.36.23.72.54,1.04.72.72,1.89.72,2.66,0,.72-.72.72-1.89,0-2.66-.77-.77-1.94-.77-2.66-.05m10.11,12.5c-.54-.32-.59-1.08-.59-1.35v-.05c.36-.05.77-.23,1.04-.54.72-.72.72-1.89,0-2.66-.72-.72-1.89-.72-2.62,0-.72.72-.72,1.89,0,2.66.27.32.68.45,1.04.54v.09c0,.32-.09,1.13-.68,1.35-.05,0-.09.05-.14.09-.23.14-.45.27-.63.45-.99.99-.99,2.57,0,3.52.99.99,2.53.99,3.52,0,.99-.99.99-2.53,0-3.52-.32-.27-.63-.45-.95-.59M14.26.71c-.99.99-.99,2.57,0,3.52.27.27.59.45.9.59.54.32.59,1.08.59,1.35v.05c-.36.05-.77.23-1.04.54-.72.72-.72,1.89,0,2.66.72.72,1.89.72,2.62,0s.72-1.89,0-2.66c-.32-.32-.68-.45-1.04-.54v-.09c0-.32.09-1.13.68-1.35.05,0,.09-.05.14-.09.23-.14.45-.27.63-.45.99-.99.99-2.53,0-3.52-.9-.95-2.48-.95-3.47,0m17.01,13.54c-.99-.99-2.57-.99-3.52,0-.27.27-.45.54-.54.86-.32.54-1.08.59-1.35.59h-.05c-.05-.36-.23-.72-.54-1.04-.72-.72-1.89-.72-2.62,0-.72.72-.72,1.89,0,2.66.72.72,1.89.72,2.62,0,.32-.32.5-.68.54-1.08h.05c.27,0,1.04.09,1.31.59.14.32.32.63.59.9.99.99,2.53.99,3.52,0,.95-.95.95-2.53,0-3.47"/>
</svg>