<?xml version="1.0" encoding="UTF-8"?>
<svg id="Layer_1" data-name="Layer 1" xmlns="http://www.w3.org/2000/svg" viewBox="0 0 490 335.39">
  <defs>
    <style>
      .cls-1 {
        fill: #47215d;
        stroke-width: 0px;
      }
    </style>
  </defs>
  <g style="display: none;">
    <path class="cls-1" d="m92.29,298.11c-1.64-.33-3.05-.74-4.23-1.25v-1.93h.28c1.11.58,2.47,1.04,4.05,1.4,1.59.36,3.15.53,4.7.53,2.05,0,3.73-.19,5.04-.57,1.31-.38,2.27-.9,2.87-1.56.6-.66.9-1.41.9-2.26,0-.95-.4-1.7-1.2-2.23-.8-.54-1.98-.86-3.54-.96l-6.97-.46c-1.95-.13-3.49-.6-4.62-1.42-1.14-.82-1.7-1.98-1.7-3.49,0-1.12.37-2.1,1.11-2.93.74-.83,1.84-1.46,3.29-1.91,1.45-.45,3.23-.67,5.32-.67,1.03,0,2.1.08,3.21.24s2.13.36,3.06.61c.93.25,1.65.5,2.17.76v1.69h-.22c-.96-.47-2.18-.86-3.65-1.16-1.48-.3-3-.45-4.57-.45-1.9,0-3.44.17-4.62.5-1.19.33-2.05.79-2.57,1.36s-.79,1.22-.79,1.96c0,.99.41,1.75,1.22,2.28.81.53,1.98.84,3.5.91,2.37.13,4.67.28,6.91.46,2.23.18,3.86.67,4.89,1.49s1.54,1.94,1.54,3.38c0,1.27-.4,2.36-1.18,3.28-.79.92-1.98,1.63-3.56,2.13-1.58.5-3.53.75-5.83.75-1.56,0-3.16-.16-4.8-.49Z"/>
    <path class="cls-1" d="m128.5,279.06v1.61h-8.28v17.29h-1.69v-17.29h-8.3v-1.61h18.27Z"/>
    <path class="cls-1" d="m131.33,295.44h2.77v2.55h-2.77v-2.55Z"/>
    <path class="cls-1" d="m170.12,290.08c-.79,1.1-1.86,1.96-3.22,2.59-1.36.62-2.84.93-4.45.93h-9.17v4.36h-1.69v-18.9h10.86c1.61-.01,3.1.3,4.45.94,1.35.63,2.43,1.51,3.22,2.62s1.18,2.36,1.18,3.74-.39,2.61-1.18,3.71Zm-3.78,1.22c1.03-.48,1.82-1.15,2.37-2.01.54-.85.82-1.82.82-2.9s-.27-2.02-.82-2.91c-.55-.88-1.34-1.58-2.37-2.1-1.03-.52-2.25-.78-3.65-.78h-9.4v11.42h9.4c1.41,0,2.63-.24,3.66-.73Z"/>
    <path class="cls-1" d="m193.6,280.67h-16.62v6.88h12.47v1.65h-12.47v7.15h16.62v1.61h-18.31v-18.9h18.31v1.61Z"/>
    <path class="cls-1" d="m215.21,279.06v1.61h-8.28v17.29h-1.69v-17.29h-8.3v-1.61h18.27Z"/>
    <path class="cls-1" d="m237.12,280.67h-16.62v6.88h12.47v1.65h-12.47v7.15h16.62v1.61h-18.31v-18.9h18.31v1.61Z"/>
    <path class="cls-1" d="m275.47,289.7c.64.83.96,1.83.96,3,0,1.08-.29,2.02-.87,2.82s-1.36,1.4-2.35,1.82c-.99.42-2.09.62-3.31.62h-14.78v-18.9h14.27c1.13-.01,2.16.18,3.08.57.92.39,1.65.95,2.19,1.69.54.73.81,1.59.82,2.57,0,.81-.22,1.55-.69,2.23s-1.11,1.25-1.93,1.72c1.09.41,1.96,1.03,2.6,1.87Zm-18.65-9.04v6.63h12.52c1.13,0,2.03-.18,2.68-.55.66-.37,1.11-.81,1.36-1.33.25-.51.37-1.02.37-1.52,0-.45-.13-.93-.4-1.42-.27-.49-.72-.92-1.36-1.27-.64-.36-1.48-.53-2.53-.53h-12.65Zm17.37,10.23c-.34-.59-.86-1.07-1.58-1.45-.71-.38-1.6-.57-2.65-.57h-1.07.93-.51c-.09,0-.24,0-.42,0h-12.07v7.49h13.28c.96,0,1.79-.16,2.48-.48.69-.32,1.21-.76,1.57-1.32s.54-1.17.55-1.85c0-.62-.16-1.22-.5-1.81Z"/>
    <path class="cls-1" d="m298.86,280.67h-16.62v6.88h12.47v1.65h-12.47v7.15h16.62v1.61h-18.31v-18.9h18.31v1.61Z"/>
    <path class="cls-1" d="m323.77,297.96l-.76-5.06h-17.84l-.76,5.06h-1.69l2.82-18.9h17.1l2.82,18.9h-1.69Zm-18.37-6.66h17.38l-1.58-10.63h-14.22l-1.58,10.63Z"/>
    <path class="cls-1" d="m343.6,298.2c-1.18.3-2.45.44-3.79.44-2.08,0-3.97-.42-5.67-1.27s-3.03-2.03-4.01-3.56c-.98-1.53-1.47-3.29-1.47-5.27s.48-3.74,1.44-5.29c.96-1.54,2.29-2.74,3.98-3.6,1.69-.85,3.6-1.28,5.72-1.28,1.35,0,2.61.15,3.79.45,1.18.3,2.19.75,3.02,1.35v1.61h-.49c-.71-.52-1.67-.94-2.88-1.29-1.21-.34-2.41-.51-3.6-.51-1.93,0-3.6.39-5,1.16s-2.47,1.81-3.2,3.11c-.73,1.3-1.09,2.73-1.09,4.29s.37,2.91,1.12,4.21,1.82,2.33,3.23,3.11,3.05,1.17,4.94,1.17c1.21,0,2.42-.17,3.63-.51,1.21-.34,2.17-.77,2.87-1.28h.48v1.61c-.83.6-1.84,1.05-3.02,1.34Z"/>
    <path class="cls-1" d="m369.1,279.06h1.69v18.9h-1.69v-8.43h-16.54v8.43h-1.69v-18.9h1.69v8.86h16.54v-8.86Z"/>
    <path class="cls-1" d="m245.71,312.29h-15.85v6.99h14.52v1.62h-14.52v8.68h-1.69v-18.9h17.54v1.61Z"/>
    <path class="cls-1" d="m251,327.97h13.97v1.61h-15.66v-18.9h1.69v17.29Z"/>
    <path class="cls-1" d="m273.48,328.97c-1.67-.86-2.99-2.06-3.96-3.61-.97-1.55-1.46-3.31-1.46-5.28s.49-3.72,1.46-5.26c.97-1.53,2.29-2.72,3.96-3.56s3.5-1.27,5.52-1.27,3.83.42,5.49,1.27c1.66.84,2.98,2.03,3.95,3.56.97,1.53,1.45,3.28,1.45,5.26s-.49,3.73-1.46,5.28c-.97,1.55-2.29,2.75-3.95,3.61-1.66.86-3.49,1.29-5.49,1.29s-3.84-.43-5.51-1.29Zm10.11-1.36c1.4-.69,2.51-1.69,3.34-2.98.83-1.3,1.24-2.82,1.24-4.55s-.41-3.28-1.24-4.55c-.83-1.28-1.94-2.25-3.33-2.92-1.39-.67-2.93-1-4.6-1s-3.26.33-4.66,1-2.51,1.64-3.33,2.92c-.82,1.28-1.23,2.8-1.23,4.55s.41,3.26,1.23,4.55c.82,1.3,1.93,2.29,3.33,2.98,1.4.69,2.95,1.04,4.65,1.04s3.19-.34,4.59-1.04Z"/>
    <path class="cls-1" d="m312.5,329.59l-1.94-5.91h-15.12v5.89h-1.69v-18.9h10.86c1.8-.01,3.37.26,4.7.8,1.33.54,2.36,1.3,3.07,2.28.72.98,1.07,2.12,1.07,3.42,0,.94-.3,1.85-.9,2.71-.6.86-1.46,1.58-2.59,2.17h.04s1.78-.01,1.78-.01l2.48,7.55h-1.78Zm-9.39-7.51h1.84c1.4-.06,2.61-.3,3.63-.73,1.02-.44,1.81-1.02,2.35-1.74s.81-1.53.81-2.42c0-1.61-.6-2.83-1.79-3.66-1.19-.83-2.94-1.24-5.24-1.24h-9.28v9.8h7.67Z"/>
    <path class="cls-1" d="m318.65,310.68h1.69v18.9h-1.69v-18.9Z"/>
    <path class="cls-1" d="m344.08,325c-.94,1.44-2.22,2.56-3.85,3.36-1.63.81-3.44,1.21-5.43,1.21h-8.86s-.85,0-.85,0v-18.9h1.69s0,0,0,0h8.03c1.98-.01,3.79.4,5.42,1.22,1.63.82,2.91,1.95,3.85,3.4.94,1.45,1.41,3.07,1.41,4.86s-.47,3.41-1.4,4.84Zm-4.57,1.91c1.34-.7,2.37-1.65,3.08-2.84.71-1.19,1.07-2.5,1.07-3.91s-.36-2.8-1.07-4c-.72-1.2-1.75-2.15-3.09-2.84-1.34-.69-2.91-1.04-4.69-1.04h-8.03v15.73c.24,0,.63.01,1.16.01.41,0,1.23,0,2.47-.03,1.66-.02,3.13-.03,4.4-.03,1.79,0,3.36-.35,4.7-1.05Z"/>
    <path class="cls-1" d="m369.75,329.58l-.76-5.06h-17.84l-.76,5.06h-1.69l2.82-18.9h17.1l2.82,18.9h-1.69Zm-18.37-6.66h17.38l-1.58-10.63h-14.22l-1.58,10.63Z"/>
  </g>
  <g>
    <path class="cls-1" d="m375.55,152.59h1.69v18.9h-1.69v-18.9Z"/>
    <path class="cls-1" d="m400.3,154.2h-16.62v6.88h12.47v1.65h-12.47v7.15h16.62v1.61h-18.31v-18.9h18.31v1.61Z"/>
    <path class="cls-1" d="m423.11,154.2h-16.62v6.88h12.47v1.65h-12.47v7.15h16.62v1.61h-18.31v-18.9h18.31v1.61Z"/>
    <path class="cls-1" d="m445.92,154.2h-16.62v6.88h12.47v1.65h-12.47v7.15h16.62v1.61h-18.31v-18.9h18.31v1.61Z"/>
    <path class="cls-1" d="m394.02,184.21h1.69l-5,18.9h-10.92l-5-18.9h1.69l4.58,17.29h8.4l4.58-17.29Z"/>
    <path class="cls-1" d="m399.69,184.21h1.69v18.9h-1.69v-18.9Z"/>
    <path class="cls-1" d="m409.67,203.26c-1.64-.33-3.05-.74-4.23-1.25v-1.93h.28c1.11.58,2.47,1.04,4.05,1.4,1.59.36,3.15.53,4.7.53,2.05,0,3.73-.19,5.04-.57,1.31-.38,2.27-.9,2.87-1.56.6-.66.9-1.41.9-2.26,0-.95-.4-1.7-1.2-2.23-.8-.54-1.98-.86-3.54-.96l-6.97-.46c-1.95-.13-3.49-.6-4.62-1.42-1.14-.82-1.7-1.98-1.7-3.49,0-1.12.37-2.1,1.11-2.93.74-.83,1.84-1.46,3.29-1.91,1.45-.45,3.23-.67,5.32-.67,1.03,0,2.1.08,3.21.24s2.13.36,3.06.61c.93.25,1.65.5,2.17.76v1.69h-.22c-.96-.47-2.18-.86-3.65-1.16-1.48-.3-3-.45-4.57-.45-1.9,0-3.44.17-4.62.5-1.19.33-2.05.79-2.57,1.36s-.79,1.22-.79,1.96c0,.99.41,1.75,1.22,2.28.81.53,1.98.84,3.5.91,2.37.13,4.67.28,6.91.46,2.23.18,3.86.67,4.89,1.49s1.54,1.94,1.54,3.38c0,1.27-.4,2.36-1.18,3.28-.79.92-1.98,1.63-3.56,2.13-1.58.5-3.53.75-5.83.75-1.56,0-3.16-.16-4.8-.49Z"/>
    <path class="cls-1" d="m449.17,203.11l-.76-5.06h-17.84l-.76,5.06h-1.69l2.82-18.9h17.1l2.82,18.9h-1.69Zm-18.37-6.66h17.38l-1.58-10.63h-14.22l-1.58,10.63Z"/>
    <path class="cls-1" d="m473.5,195.23c-.79,1.1-1.86,1.96-3.22,2.59-1.36.62-2.84.93-4.45.93h-9.17v4.36h-1.69v-18.9h10.86c1.61-.01,3.1.3,4.45.94,1.35.63,2.43,1.51,3.22,2.62s1.18,2.36,1.18,3.74-.39,2.61-1.18,3.71Zm-3.78,1.22c1.03-.48,1.82-1.15,2.37-2.01.54-.85.82-1.82.82-2.9s-.27-2.02-.82-2.91c-.55-.88-1.34-1.58-2.37-2.1-1.03-.52-2.25-.78-3.65-.78h-9.4v11.42h9.4c1.41,0,2.63-.24,3.66-.73Z"/>
    <path class="cls-1" d="m390.92,233.12v1.61h-15.76v-1.61l.68-.28c2.64-1.09,4.83-2.08,6.56-2.96,1.73-.88,3.24-1.97,4.51-3.25,1.27-1.28,1.91-2.72,1.91-4.33,0-1.03-.32-1.97-.95-2.81s-1.54-1.51-2.72-2c-1.18-.49-2.58-.73-4.19-.73s-3.48.28-5.4.84v-1.61c2.03-.56,3.93-.84,5.69-.84,1.96,0,3.63.33,5.04.98s2.46,1.51,3.18,2.59c.72,1.07,1.08,2.23,1.08,3.46,0,1.87-.67,3.54-2.02,5.01-1.35,1.47-2.84,2.65-4.48,3.55-1.64.9-3.33,1.69-5.08,2.39h11.95Z"/>
    <path class="cls-1" d="m399.61,234.12c-1.52-.86-2.73-2.06-3.62-3.61-.89-1.55-1.34-3.31-1.34-5.28s.44-3.72,1.33-5.26c.89-1.53,2.09-2.72,3.62-3.56,1.53-.84,3.21-1.27,5.04-1.27s3.5.42,5.02,1.27,2.72,2.03,3.61,3.56c.89,1.53,1.33,3.28,1.33,5.26s-.44,3.73-1.33,5.28c-.89,1.55-2.09,2.75-3.62,3.61s-3.19,1.29-5.01,1.29-3.51-.43-5.04-1.29Zm9.2-1.36c1.25-.69,2.24-1.68,2.97-2.98.73-1.29,1.1-2.81,1.1-4.55s-.36-3.28-1.09-4.55c-.73-1.28-1.72-2.25-2.97-2.92-1.25-.67-2.64-1-4.17-1s-2.97.33-4.22,1c-1.25.67-2.24,1.64-2.97,2.91-.73,1.28-1.09,2.8-1.09,4.57s.36,3.27,1.09,4.57c.72,1.3,1.72,2.29,2.97,2.97,1.26.69,2.66,1.03,4.21,1.03s2.91-.34,4.16-1.04Z"/>
    <path class="cls-1" d="m434.1,233.12v1.61h-15.76v-1.61l.68-.28c2.64-1.09,4.83-2.08,6.56-2.96,1.73-.88,3.24-1.97,4.51-3.25,1.27-1.28,1.91-2.72,1.91-4.33,0-1.03-.32-1.97-.95-2.81s-1.54-1.51-2.72-2c-1.18-.49-2.58-.73-4.19-.73s-3.48.28-5.4.84v-1.61c2.03-.56,3.93-.84,5.69-.84,1.96,0,3.63.33,5.04.98s2.46,1.51,3.18,2.59c.72,1.07,1.08,2.23,1.08,3.46,0,1.87-.67,3.54-2.02,5.01-1.35,1.47-2.84,2.65-4.48,3.55-1.64.9-3.33,1.69-5.08,2.39h11.95Z"/>
    <path class="cls-1" d="m454.36,228.34v1.61h-2.39v4.77h-1.69v-4.77h-12.97v-1.61l12.22-12.52h2.43v12.52h2.39Zm-14.83,0h10.75v-10.91l-10.75,10.91Z"/>
  </g>
  <path class="cls-1" d="m32.42,65.23h-8.5c-2.81,0-5.52,0-8.14-.02-2.62-.01-5.07,0-7.37.02v-23.62h21.39c1.69,0,3.21-.29,4.55-.86,1.35-.57,2.41-1.42,3.18-2.56.77-1.13,1.16-2.53,1.16-4.19,0-1.46-.39-2.72-1.18-3.78-.79-1.06-1.85-1.86-3.2-2.4-1.35-.54-2.85-.82-4.51-.82H8.42V2.15h10.57c2.23-.03,4.47-.04,6.72-.04h6.72c6.5,0,12.47,1.37,17.91,4.12,5.44,2.75,9.76,6.54,12.95,11.36,3.19,4.82,4.79,10.23,4.79,16.21s-1.59,11.33-4.77,16.13c-3.18,4.8-7.49,8.55-12.95,11.25-5.45,2.7-11.43,4.06-17.93,4.06M0,2.15h28.39v63.09H0V2.15Z"/>
  <rect class="cls-1" x="76.91" y="2.15" width="22.68" height="63.09"/>
  <path class="cls-1" d="m168.08,65.24h-14.26l14.52-63.09h15.16l-15.42,63.09Zm-7.09,0h-24.22v-12.02h24.22v12.02Zm-34.06,0L111.53,2.15h15.16l14.52,63.09h-14.26Z"/>
  <path class="cls-1" d="m201.88,59.87h56.43v5.37h-56.43v-5.37Zm0-57.72h56.43v5.37h-56.43V2.15Zm-.17,28.34h42.73v5.5h-42.73v-5.5Zm-4.51-28.34h5.63v63.09h-5.63V2.15Z"/>
  <path class="cls-1" d="m316.16,65.28l-8.93-22.72h24.31l9.92,22.72h-25.29Zm-11.98-22.76l16.06.04v3.22h-16.06v-3.26Zm4.81,3.09c-.14,0-.29,0-.43.02-.14.01-.3.02-.47.02-.17.03-.34.06-.49.09-.16.03-.34.04-.54.04h-20.7v-15.2h19.03c1.92,0,3.58-.25,4.98-.75,1.4-.5,2.48-1.23,3.24-2.19.76-.96,1.14-2.14,1.14-3.54,0-1.86-.84-3.32-2.51-4.38-1.68-1.06-3.96-1.59-6.85-1.59h-19.03l-.64-15.98h10.56c2.32-.03,4.57-.04,6.74-.04h6.18c6.01,0,11.24.92,15.7,2.75,4.45,1.83,7.87,4.39,10.26,7.67,2.39,3.28,3.59,7.09,3.59,11.44,0,3.87-1.15,7.44-3.44,10.71-2.29,3.28-5.68,5.91-10.16,7.9-4.48,1.99-9.87,3-16.17,3.03M272.95,2.15h25.43v63.09h-25.43V2.15Z"/>
  <path class="cls-1" d="m382.03,67.38c-5.21,0-10.55-.54-16.02-1.63-5.47-1.09-10.18-2.48-14.13-4.17v-6.44h.95c3.72,1.92,8.23,3.47,13.53,4.66,5.3,1.19,10.52,1.78,15.68,1.78,6.84,0,12.46-.64,16.84-1.91,4.38-1.27,7.57-3.01,9.58-5.2,2-2.19,3-4.7,3-7.54,0-2.12-.59-3.93-1.78-5.43-1.19-1.5-2.96-2.69-5.3-3.56-2.35-.87-5.25-1.42-8.72-1.65-2.03-.14-4.22-.29-6.57-.45-2.35-.16-4.75-.31-7.22-.45-1.72-.11-3.38-.23-4.98-.34-1.6-.11-3.11-.22-4.51-.3-4.24-.29-7.94-1.07-11.1-2.34-3.16-1.27-5.63-3.08-7.39-5.41-1.76-2.33-2.64-5.2-2.64-8.61,0-3.75,1.24-7.01,3.72-9.77,2.47-2.76,6.14-4.89,10.99-6.38,4.85-1.49,10.77-2.23,17.76-2.23,3.44,0,7.01.26,10.72.8,3.71.53,7.11,1.21,10.2,2.04,3.09.83,5.51,1.68,7.26,2.54v5.63h-.73c-3.21-1.57-7.27-2.86-12.2-3.87-4.93-1-10.01-1.5-15.25-1.5-6.33,0-11.47.56-15.44,1.68-3.97,1.12-6.83,2.63-8.59,4.53-1.76,1.9-2.64,4.09-2.64,6.55,0,2.2.62,4.07,1.85,5.6,1.23,1.53,3.02,2.71,5.37,3.54,2.35.83,5.2,1.33,8.55,1.5,1.06.06,2.16.12,3.31.19,1.15.07,2.32.14,3.52.19,2.72.17,5.45.35,8.2.54,2.75.19,5.43.39,8.03.62,5.01.4,9.1,1.28,12.28,2.64s5.5,3.17,6.98,5.43c1.48,2.26,2.21,4.98,2.21,8.16,0,4.24-1.32,7.89-3.95,10.95-2.64,3.06-6.59,5.43-11.87,7.11-5.28,1.68-11.77,2.51-19.48,2.51"/>
  <path class="cls-1" d="m437.56,55.74h52.44v9.49h-52.44v-9.49Zm0-53.6h52.44v9.49h-52.44V2.15Zm-.17,26.58h38.74v9.02h-38.74v-9.02Zm-8.5-26.58h11.51v63.09h-11.51V2.15Z"/>
  <path class="cls-1" d="m33.15,170.78h-8.89c-3.26,0-6.43,0-9.49-.02-3.06-.01-5.83,0-8.29.02v-14.73c1.98.03,4.13.04,6.46.02,2.33-.01,4.83,0,7.49.02,1.75,0,3.58,0,5.5-.02,1.92-.01,3.89-.02,5.93-.02,3.78,0,7.13-.72,10.05-2.15,2.92-1.43,5.17-3.41,6.77-5.93,1.59-2.52,2.38-5.36,2.38-8.5s-.8-5.97-2.4-8.46c-1.6-2.49-3.86-4.44-6.76-5.86-2.91-1.42-6.25-2.13-10.03-2.13H6.48v-15.33h11.77c2.58-.03,5.12-.04,7.64-.04h7.26c6.58,0,12.6,1.37,18.04,4.12,5.44,2.75,9.73,6.54,12.88,11.36,3.15,4.83,4.72,10.23,4.72,16.21s-1.58,11.37-4.72,16.17c-3.15,4.8-7.45,8.54-12.9,11.23-5.45,2.69-11.46,4.04-18.02,4.04m-32.42,0v-63.09l17.05-.04v63.09l-17.05.04Z"/>
  <path class="cls-1" d="m143.57,107.69l9.41,63.09h-5.63l-9.41-63.09h5.63Zm-54.37,0h51.92v5.37h-51.92v-5.37Zm-4.9,40.84h61.33v5.37h-61.33v-5.37Zm2.19-40.84h5.63l-9.41,63.09h-5.63l9.41-63.09Z"/>
  <path class="cls-1" d="m184.88,107.69h16.06v63.09h-16.06v-63.09Zm-22.46,0h60.98v12.63h-60.98v-12.63Z"/>
  <path class="cls-1" d="m294.78,107.69l9.41,63.09h-28.43l-7.21-63.09h26.24Zm-36.93,0h15.97v21.09h-15.97v-21.09Zm-8.16,33.71h37.28v19.67h-37.28v-19.67Zm-11.98-33.71h26.24l-7.21,63.09h-28.43l9.41-63.09Z"/>
</svg>